<?xml version="1.0" standalone="no"?><!DOCTYPE svg PUBLIC "-//W3C//DTD SVG 1.1//EN" "http://www.w3.org/Graphics/SVG/1.1/DTD/svg11.dtd"><svg t="1706883312967" class="icon" viewBox="0 0 1137 1024" version="1.1" xmlns="http://www.w3.org/2000/svg" p-id="4295" xmlns:xlink="http://www.w3.org/1999/xlink" width="222.0703125" height="200"><path d="M0 788.024889v-53.703111h112.905481v53.703111H0z m27.913481-78.620445V314.785185H84.954074v394.619259H27.913481z m647.092149-232.978963l237.340444-223.383703 40.353185 37.963852-237.340444 223.421629-40.353185-38.001778zM0 289.829926V236.126815h112.905481v53.703111H0zM56.357926 1024c-17.066667 0-28.634074-10.884741-28.634074-26.927407v-184.092445h57.078518v157.316741h82.29926V53.854815H84.992v157.316741H27.913481V26.927407c0-16.042667 11.567407-26.927407 28.634075-26.927407h849.389037c17.066667 0 28.634074 10.884741 28.634074 26.927407v132.209778l76.8-72.286815a29.089185 29.089185 0 0 1 19.911111-8.040296c7.281778 0 14.411852 2.844444 19.911111 8.040296l78.051555 73.462519c11.377778 10.733037 11.377778 26.927407 0 40.201481L1051.723852 273.445926c5.688889 5.537185 8.00237 10.884741 8.00237 18.394074 0 7.698963-2.465185 13.084444-8.533333 18.773333l-119.61837 112.64v573.81926c0 16.042667-11.567407 26.927407-28.634075 26.927407H56.357926z m818.138074-53.703111V476.956444L460.8 866.531556c-3.90637 3.678815-196.987259 63.070815-198.238815 63.070814a26.43437 26.43437 0 0 1-19.911111-8.00237c-6.030222-5.688889-8.343704-16.763259-5.688889-26.775704l58.519704-167.860148c0.151704-0.341333 2.844444-8.040296 5.688889-10.733037L874.647704 176.393481V53.854815H224.218074v916.214518h650.315852v0.18963z m-563.579259-107.937185l78.430815-25.448297-54.044445-50.896592-24.38637 76.344889z m129.782518-52.41363L988.463407 289.185185l-76.989629-72.438518L361.054815 735.004444l79.644444 74.94163zM1011.749926 235.785481l57.419852-54.044444-38.039704-35.802074-57.457778 54.044444 38.07763 35.802074z" fill="#FC5B5B" p-id="4296"></path></svg>